<?xml version="1.0" encoding="utf-8"?>
<!-- Generator: Adobe Illustrator 16.0.0, SVG Export Plug-In . SVG Version: 6.00 Build 0)  -->
<!DOCTYPE svg PUBLIC "-//W3C//DTD SVG 1.1//EN" "http://www.w3.org/Graphics/SVG/1.1/DTD/svg11.dtd">
<svg version="1.1" id="Layer_1" xmlns="http://www.w3.org/2000/svg" xmlns:xlink="http://www.w3.org/1999/xlink" x="0px" y="0px"
	 width="960px" height="540px" viewBox="0 0 960 540" enable-background="new 0 0 960 540" xml:space="preserve">
<path fill="#FFDA34" d="M468.194,0.28C331.576,7.026,227.008,123.403,227.008,260.019v128.183l0,0c0,30.359,0,92.767,0,126.496
	c0,11.809,11.808,18.554,21.927,11.809l38.792-23.612c15.181-8.433,33.732-8.433,48.911,0l35.42,20.239
	c15.18,8.433,33.73,8.433,48.911,0l35.419-20.239c15.181-8.433,33.731-8.433,48.912,0l35.419,20.239
	c15.18,8.433,33.731,8.433,48.911,0l35.42-20.239c15.18-8.433,33.73-8.433,48.911,0l37.104,21.926
	c10.121,5.062,21.926-1.687,21.926-11.807c0-35.42,0-97.824,0-126.496l0,0V251.587C732.992,109.908,613.242-6.467,468.194,0.28z"/>
<path fill="#E4E7E7" d="M572.764,219.54c-32.047,0-59.032,26.984-59.032,59.03c0,32.047,26.985,59.032,59.032,59.032
	c32.046,0,59.031-26.985,59.031-59.032C631.797,246.526,604.81,219.54,572.764,219.54z M387.236,219.54
	c-32.047,0-59.031,26.984-59.031,59.03c0,32.047,26.984,59.032,59.031,59.032s59.032-26.985,59.032-59.032
	C446.268,246.526,419.281,219.54,387.236,219.54z"/>
<path fill="#324D5B" d="M572.764,253.274c-13.494,0-25.299,11.808-25.299,25.299c0,13.493,11.807,25.298,25.299,25.298
	c13.491,0,25.299-11.807,25.299-25.298C598.063,265.078,586.259,253.274,572.764,253.274z M387.236,253.274
	c-13.493,0-25.299,11.808-25.299,25.299c0,13.493,11.808,25.298,25.299,25.298c13.494,0,25.299-11.807,25.299-25.298
	C412.534,265.078,400.728,253.274,387.236,253.274z"/>
</svg>
